<svg version="1.1" id="Layer_1" xmlns="http://www.w3.org/2000/svg" xmlns:xlink="http://www.w3.org/1999/xlink" x="0px" y="0px"
	 width="100%" viewBox="0 0 1024 512" enable-background="new 0 0 1024 512" xml:space="preserve">
<path fill="#020202" opacity="1.000000" stroke="none" 
	d="
M789.000000,513.000000 
	C526.042664,513.000000 263.585358,513.000000 1.064024,513.000000 
	C1.064024,342.403778 1.064024,171.807541 1.064024,1.105650 
	C342.333313,1.105650 683.666626,1.105650 1024.980591,1.105650 
	C1024.980591,171.748077 1024.980591,342.374054 1024.980591,513.000000 
	C946.474121,513.000000 867.987061,513.000000 789.000000,513.000000 
M490.502930,143.107697 
	C541.807922,144.043869 593.114990,144.886810 644.415161,146.039078 
	C650.545410,146.176773 654.266174,145.106262 657.269165,138.956421 
	C665.812195,121.461258 675.351624,104.454765 684.356262,87.181549 
	C687.131531,81.857887 689.447876,76.295021 692.548950,69.601524 
	C689.935547,70.389572 688.894287,70.454781 688.158447,70.962479 
	C675.547974,79.662994 662.893982,88.306389 650.502563,97.310486 
	C649.043274,98.370872 648.312378,101.569153 648.558167,103.618759 
	C649.188416,108.874504 647.330627,113.276207 642.603149,115.599632 
	C629.963684,121.811531 613.333801,114.128929 609.845276,100.466248 
	C608.361267,94.654037 609.470215,92.924454 614.900146,90.510170 
	C616.619812,89.745567 618.819763,87.505997 618.852539,85.901566 
	C619.152405,71.245888 619.061462,56.581116 618.949890,41.920021 
	C618.940125,40.635239 617.971802,39.357746 617.448669,38.076878 
	C616.155823,38.922157 614.557007,39.516994 613.624023,40.656792 
	C609.933044,45.165825 606.550537,49.927067 602.869751,54.444855 
	C595.504395,63.484951 587.965942,72.384216 580.623474,81.442574 
	C579.067383,83.362328 576.481384,85.695381 579.732300,88.203430 
	C584.154846,91.615425 583.307068,95.366806 580.650513,99.111153 
	C574.732544,107.452263 566.295837,110.129028 556.528564,108.921463 
	C547.406738,107.793701 540.132874,103.425797 535.750305,95.142792 
	C533.475708,90.843796 535.106201,86.062820 539.786682,84.409180 
	C544.647766,82.691719 544.359802,80.246170 542.573792,76.439919 
	C534.225525,58.648701 526.044006,40.779236 517.729919,22.971815 
	C516.711731,20.791019 515.255005,18.814962 513.458618,15.847040 
	C512.033936,18.296892 511.020691,19.754951 510.291046,21.343292 
	C507.233124,28.000242 504.220062,34.678524 501.264801,41.381741 
	C495.688477,54.030094 490.088806,66.669701 484.737366,79.413101 
	C484.226135,80.630447 484.898132,83.474998 485.868164,84.000809 
	C492.212189,87.439522 494.250916,92.662079 489.335968,97.919289 
	C485.192413,102.351395 479.589722,106.048790 473.927948,108.292297 
	C464.136169,112.172371 451.533234,108.078613 445.867920,100.516930 
	C442.847504,96.485489 442.928192,91.735733 446.595490,88.420441 
	C449.175415,86.088142 449.242249,84.417770 446.997345,81.794556 
	C435.519684,68.382553 424.165985,54.863712 412.874664,41.294258 
	C411.865570,40.081585 411.613617,38.238884 411.010010,36.688797 
	C410.163177,37.303154 409.316376,37.917511 408.469543,38.531868 
	C408.285217,40.266647 407.947632,42.000828 407.940857,43.736305 
	C407.888031,57.233784 408.023956,70.733459 407.812866,84.227951 
	C407.750671,88.203156 408.994904,90.616524 412.912079,91.484329 
	C416.596771,92.300621 417.385132,94.752129 417.154724,98.218811 
	C416.193909,112.674759 395.984467,123.328957 383.641846,115.749825 
	C380.007324,113.517998 377.314392,110.196136 378.242706,105.856926 
	C379.246490,101.165169 377.191162,98.673210 373.786133,96.363998 
	C360.827820,87.576042 347.911682,78.725891 334.951599,69.940613 
	C333.850433,69.194160 332.540344,68.755882 331.327332,68.174438 
	C333.154358,74.520882 335.717255,80.026550 338.462769,85.439590 
	C347.803131,103.855026 357.286804,122.198326 366.528473,140.662918 
	C368.632538,144.866806 371.497101,146.107666 376.090851,145.975845 
	C413.891815,144.891098 451.699371,144.036255 490.502930,143.107697 
M239.828064,280.705322 
	C217.302979,261.424896 194.677261,242.259842 172.333069,222.771988 
	C167.551453,218.601608 163.025314,216.490768 156.391434,216.796173 
	C141.756119,217.469925 127.066689,216.902832 112.403481,217.120682 
	C110.639198,217.146896 108.900497,218.895218 107.149940,219.845367 
	C108.403168,221.532883 109.299347,224.071548 110.967003,224.771103 
	C122.634193,229.665222 123.779305,231.047623 123.789856,243.626465 
	C123.808594,265.959259 123.452858,288.297394 123.851501,310.622620 
	C124.041443,321.260376 122.625183,329.958649 110.307594,332.641998 
	C109.071892,332.911194 108.285957,335.244995 107.291267,336.620605 
	C108.660736,337.589111 109.934845,338.765747 111.433502,339.452271 
	C112.418304,339.903442 113.727081,339.698212 114.890930,339.700104 
	C131.390640,339.727051 147.891678,339.840454 164.388443,339.626984 
	C166.459396,339.600189 168.507782,337.831116 170.566635,336.869324 
	C168.957535,335.214447 167.625275,332.653198 165.691147,332.062408 
	C157.529953,329.569672 155.257019,324.006104 155.337128,316.083069 
	C155.537613,296.254547 155.281494,276.421509 155.253250,256.590271 
	C155.251999,255.708633 155.691025,254.826385 156.132675,253.161407 
	C159.792496,256.507019 162.925323,259.433105 166.124115,262.285156 
	C189.374176,283.014954 212.705597,303.654053 235.874344,324.474213 
	C253.321976,340.153168 253.231567,340.253784 276.921631,339.638184 
	C282.976807,339.480865 283.445221,339.027802 283.438202,332.952576 
	C283.409943,308.454193 283.356110,283.955811 283.329529,259.457428 
	C283.322296,252.791138 283.235687,246.120422 283.440735,239.459595 
	C283.682037,231.619095 286.077209,228.592621 293.561371,225.892044 
	C294.500671,225.553116 295.622040,225.356796 296.289795,224.712006 
	C297.288940,223.747253 298.736847,222.324600 298.582153,221.312454 
	C298.371216,219.932266 297.046722,218.436768 295.793976,217.593185 
	C294.822662,216.939163 293.230011,217.089401 291.912903,217.085495 
	C275.913544,217.037949 259.912933,216.936356 243.916107,217.130875 
	C242.029999,217.153839 240.164291,218.855774 238.289139,219.779404 
	C239.699127,221.588348 241.031723,223.467056 242.563553,225.166138 
	C243.059555,225.716293 244.073532,225.807648 244.857941,226.088257 
	C251.059967,228.306900 254.158096,232.446671 254.073669,239.292969 
	C253.874344,255.456680 254.020233,271.624542 253.993973,287.790710 
	C253.992203,288.875336 253.718582,289.959503 253.428879,292.094116 
	C248.646255,288.073853 244.520065,284.605347 239.828064,280.705322 
M795.392395,220.940216 
	C786.953308,225.566040 777.993652,229.459808 770.204163,234.999115 
	C759.989136,242.263290 752.466248,252.169220 749.107300,264.538269 
	C742.217896,289.907654 752.696716,315.682648 775.747131,330.016052 
	C799.552429,344.818787 825.766541,348.600525 853.082458,345.423004 
	C872.200195,343.199097 890.187500,337.174927 905.307556,324.716156 
	C923.317993,309.875763 931.736694,290.848572 926.834229,267.609863 
	C922.816589,248.565506 910.845581,234.981171 893.574341,226.266251 
	C861.940735,210.304077 829.341309,209.782684 795.392395,220.940216 
M694.463196,334.063263 
	C697.733582,338.850616 702.374207,339.946075 707.928711,339.779846 
	C717.749084,339.485931 727.589844,339.874451 737.410767,339.588776 
	C739.282043,339.534363 741.101074,337.683380 742.944275,336.661377 
	C741.564819,335.055420 740.439941,333.079102 738.753479,331.919800 
	C735.124512,329.425171 730.453369,328.057739 727.553528,324.967133 
	C720.044189,316.963470 713.214905,308.316193 706.211487,299.845398 
	C702.670227,295.562164 699.339966,291.104523 696.174622,287.058441 
	C704.599670,283.144104 712.807068,280.202209 720.100098,275.759369 
	C734.841125,266.779236 738.002563,248.285370 727.774658,234.453079 
	C723.026245,228.031357 716.244568,224.523666 708.905334,221.947754 
	C696.256531,217.508316 683.009521,217.456558 669.901978,217.272919 
	C641.584167,216.876160 613.258301,217.050049 584.935730,216.990799 
	C584.269287,216.989395 583.457703,216.745987 582.963867,217.038162 
	C581.522278,217.891113 579.099365,218.956268 579.097290,219.942505 
	C579.093994,221.507172 580.412659,223.514618 581.772339,224.533737 
	C583.581360,225.889664 585.960083,226.492432 588.105530,227.391327 
	C592.828491,229.370178 594.929626,233.105804 594.938538,238.025070 
	C594.987427,265.014893 595.005615,292.004883 594.949402,318.994629 
	C594.937744,324.579865 592.269958,328.478516 586.795593,330.250946 
	C584.896057,330.865906 582.749390,331.231537 581.246826,332.396332 
	C580.031677,333.338348 579.018066,335.324463 579.057739,336.817108 
	C579.082886,337.764709 581.075867,339.043793 582.411438,339.471680 
	C583.934387,339.959534 585.707397,339.704346 587.371826,339.707092 
	C605.198547,339.736450 623.025574,339.811707 640.851685,339.713745 
	C643.746033,339.697845 648.053528,341.236847 648.771179,336.823181 
	C649.452271,332.634735 645.145996,332.381348 642.319031,331.330750 
	C635.547729,328.814331 633.905457,326.776581 633.891052,319.570526 
	C633.837280,292.749481 633.914307,265.928162 633.843445,239.107193 
	C633.835632,236.141205 634.706421,234.930054 637.828308,235.012344 
	C645.654053,235.218689 653.583557,234.408447 661.290283,235.405670 
	C669.250854,236.435760 677.478882,238.057083 684.717407,241.342178 
	C693.971130,245.541901 695.350891,256.998749 687.777527,263.828705 
	C684.030029,267.208313 678.810303,270.025665 673.891846,270.810516 
	C664.103638,272.372375 654.060547,272.316040 644.129578,273.024658 
	C642.562866,273.136414 639.743958,273.622192 639.689697,274.157074 
	C639.274963,278.238831 638.818542,282.506348 639.693726,286.421234 
	C639.981506,287.708008 644.175293,288.074127 646.548523,288.953979 
	C649.500122,290.048157 653.216980,290.458710 655.217590,292.513672 
	C668.339905,305.992523 681.088196,319.835510 694.463196,334.063263 
M505.787903,255.500443 
	C505.801086,250.167862 505.966553,244.829651 505.769745,239.504837 
	C505.653625,236.362549 506.480560,234.941910 509.912292,235.050674 
	C517.403992,235.288132 524.908264,235.102005 532.402527,235.288513 
	C539.987305,235.477295 546.814331,237.941635 552.433716,243.131088 
	C555.978699,246.404800 559.144958,250.090134 562.708679,253.341385 
	C564.061768,254.575867 566.052368,255.111542 567.752441,255.965729 
	C568.362854,254.205719 569.526672,252.433594 569.488464,250.687759 
	C569.317383,242.864731 568.766418,235.050842 568.422852,227.230576 
	C567.895020,215.213058 568.482300,216.893814 556.930359,216.865860 
	C506.606140,216.744034 456.281586,216.764801 405.957642,216.587280 
	C402.427399,216.574829 400.900055,218.130051 400.640533,221.083191 
	C399.722992,231.522766 398.868011,241.973053 398.315338,252.436508 
	C398.129272,255.959290 400.701477,257.373932 403.642242,255.421692 
	C405.931030,253.902283 407.742157,251.593399 409.576782,249.472076 
	C417.631683,240.158478 427.377167,234.691360 440.083557,235.173080 
	C446.903687,235.431625 453.766205,235.450012 460.569611,234.987900 
	C465.811218,234.631866 467.016663,236.670715 466.965698,241.562637 
	C466.724396,264.723053 466.436707,287.895416 466.956787,311.045746 
	C467.196747,321.727325 465.586334,329.917755 453.362701,332.200684 
	C452.073242,332.441528 450.337982,335.127686 450.451874,336.547668 
	C450.545868,337.719635 452.982635,338.865356 454.556000,339.688721 
	C455.341583,340.099884 456.518250,339.764374 457.518005,339.765533 
	C476.014862,339.786804 494.512146,339.879089 513.008057,339.758087 
	C516.039856,339.738281 520.568237,341.520386 521.508179,336.987518 
	C522.415833,332.609894 517.897949,331.813019 514.908508,330.928192 
	C508.001434,328.883850 505.695129,324.478271 505.781372,317.488373 
	C506.032104,297.162048 505.818329,276.829987 505.787903,255.500443 
M326.682343,329.254669 
	C324.566071,330.227478 322.194916,330.873993 320.408539,332.269196 
	C318.776154,333.544220 317.776672,335.629547 316.498260,337.357758 
	C318.355438,338.158722 320.206940,339.640594 322.070587,339.656067 
	C342.229126,339.823486 362.390503,339.847931 382.548035,339.628998 
	C384.634003,339.606354 386.700165,337.760803 388.775482,336.761047 
	C387.327606,335.170074 386.145721,332.647186 384.386993,332.145111 
	C375.500732,329.608398 373.234589,323.470276 373.312134,315.038208 
	C373.532684,291.050323 373.403229,267.058899 373.347870,243.069000 
	C373.321533,231.669373 374.775391,229.556320 385.226013,224.943024 
	C386.980560,224.168472 388.104279,221.964722 389.519501,220.421387 
	C387.661713,219.297180 385.815125,217.217056 383.944397,217.195084 
	C362.787689,216.946548 341.626587,216.940765 320.469330,217.145721 
	C318.924408,217.160690 317.400238,219.314560 315.866455,220.474045 
	C317.106140,221.972900 318.116547,223.795502 319.649078,224.880890 
	C321.226532,225.998047 323.362030,226.291061 325.167084,227.130280 
	C329.455872,229.124329 331.899017,232.406815 331.894257,237.286133 
	C331.868011,264.110535 331.902618,290.935211 331.763641,317.759003 
	C331.742249,321.886658 331.381317,326.192841 326.682343,329.254669 
M588.527893,152.867172 
	C520.389954,152.857529 452.251984,152.833786 384.114075,152.888626 
	C381.326599,152.890869 378.421051,153.265503 375.781555,154.119141 
	C372.209137,155.274490 369.795197,157.831390 370.017731,161.933151 
	C370.249268,166.200638 372.442413,169.185745 376.599854,170.342590 
	C378.489990,170.868530 380.542938,170.988617 382.522125,170.989304 
	C468.152710,171.019012 553.783325,171.020538 639.413879,170.982605 
	C641.723022,170.981583 644.101196,170.776123 646.325623,170.198044 
	C650.250671,169.177994 653.794861,167.013885 653.734253,162.573563 
	C653.676453,158.339279 651.197632,154.985306 646.878906,153.696640 
	C645.007263,153.138168 642.960144,152.974380 640.991272,152.965561 
	C623.832336,152.888626 606.673035,152.887543 588.527893,152.867172 
M569.035583,392.810181 
	C571.446228,399.893005 574.014709,406.927429 576.205505,414.077606 
	C577.428589,418.069366 580.031311,419.070679 583.749207,419.006897 
	C587.332214,418.945435 590.171204,418.360535 591.364868,414.219513 
	C593.021362,408.472992 595.128052,402.854279 597.115906,397.206879 
	C597.547180,395.981720 598.291626,394.866852 598.891846,393.701172 
	C599.338318,393.757324 599.784729,393.813446 600.231201,393.869568 
	C602.284729,400.662506 604.491211,407.414215 606.337830,414.262909 
	C607.563110,418.806854 610.924805,418.855621 614.519775,418.984711 
	C617.941772,419.107605 620.002258,417.893829 621.144958,414.373718 
	C623.812988,406.154572 626.637878,397.965729 629.890564,389.964355 
	C631.972168,384.843567 634.785400,379.996033 637.545593,375.183746 
	C639.362854,372.015503 637.762146,370.709259 635.129944,370.306000 
	C632.361755,369.881927 629.491638,370.059967 626.666809,370.080383 
	C619.825867,370.129761 619.832520,370.153473 620.835266,376.573456 
	C620.910278,377.053772 620.909546,377.601013 620.756165,378.053467 
	C618.914734,383.484375 617.037903,388.903259 615.170288,394.325287 
	C612.999268,390.737274 611.917358,387.170288 610.697144,383.651245 
	C609.623169,380.553833 607.767944,377.625946 610.485474,374.289062 
	C610.866211,373.821564 609.266846,370.543976 608.418274,370.470032 
	C603.462891,370.038269 598.448730,370.003784 593.479187,370.281189 
	C592.630066,370.328583 590.969177,372.855988 591.260132,373.682800 
	C594.304504,382.333588 587.864258,388.470398 585.826721,395.960358 
	C583.207886,390.179016 581.382507,384.404510 579.793274,378.565704 
	C579.547241,377.661957 580.146362,376.295441 580.760254,375.431030 
	C583.287659,371.872162 581.445068,370.457886 578.105469,370.285187 
	C573.126282,370.027740 568.121460,370.032776 563.136963,370.202393 
	C560.338684,370.297607 559.309448,371.964691 560.569275,374.651520 
	C563.293823,380.462128 566.038147,386.263458 569.035583,392.810181 
M705.358276,377.655518 
	C705.786682,382.801544 706.215088,387.947571 706.643494,393.093597 
	C704.482849,392.765503 703.580688,392.146484 702.849976,391.366791 
	C697.165466,385.301971 691.546814,379.175079 685.823914,373.146973 
	C684.710938,371.974670 683.278687,370.384430 681.913452,370.300995 
	C676.781738,369.987305 671.593689,369.935028 666.473694,370.356049 
	C663.682068,370.585602 662.648132,373.281525 664.843811,374.985413 
	C668.122986,377.530243 667.750854,380.670654 667.755920,383.946136 
	C667.767395,391.434906 667.966431,398.933167 667.634949,406.407440 
	C667.519165,409.017120 666.422363,411.762299 665.135803,414.093567 
	C663.685181,416.721985 664.016663,418.586792 666.859436,418.799774 
	C671.980896,419.183472 677.160217,419.043182 682.291504,418.729950 
	C682.930176,418.690948 684.285767,415.633026 683.854309,415.049255 
	C677.792969,406.848175 682.528564,397.994690 681.673950,389.357330 
	C688.353333,395.371094 694.281799,401.609680 700.161865,407.893433 
	C703.001892,410.928375 705.356812,414.612488 708.678467,416.933655 
	C710.931885,418.508362 714.521545,418.694153 717.432251,418.465759 
	C718.237854,418.402557 719.270142,414.646667 719.313110,412.566772 
	C719.516052,402.752258 719.239807,392.926270 719.531433,383.116180 
	C719.608948,380.509033 720.742188,377.753021 722.016541,375.405060 
	C723.806702,372.106659 723.284790,370.407288 719.440369,370.151031 
	C715.628540,369.896942 711.774841,369.851868 707.968933,370.125031 
	C706.365540,370.240082 704.017456,371.044006 703.507446,372.197723 
	C703.003601,373.337463 704.392273,375.313782 705.358276,377.655518 
M427.727417,409.843842 
	C430.818726,413.339996 432.250031,418.774841 438.125366,419.039825 
	C441.617157,419.197327 445.132874,419.258362 448.613159,419.012756 
	C449.913239,418.921021 451.143127,417.835388 452.405029,417.202942 
	C451.737030,416.015564 451.272430,414.636108 450.364838,413.674988 
	C446.955078,410.064331 443.316071,406.668976 439.935211,403.032745 
	C438.152191,401.115051 437.869110,399.192413 440.268555,397.075958 
	C445.521576,392.442535 447.107086,386.505798 444.914490,379.861023 
	C442.853516,373.615204 437.470673,371.212769 431.670807,370.867981 
	C420.552399,370.206970 409.387695,370.276459 398.241211,370.213440 
	C397.172729,370.207397 395.279724,371.326813 395.212616,372.056519 
	C395.105804,373.217682 396.224823,374.485474 396.805634,375.717499 
	C397.674652,377.560883 399.233582,379.399872 399.266388,381.262482 
	C399.430634,390.588226 399.285675,399.923737 399.009277,409.248718 
	C398.961182,410.872192 397.740204,412.452545 397.104034,414.069733 
	C396.650635,415.222443 395.647766,416.699921 396.025055,417.491669 
	C396.430298,418.342072 398.147675,418.942932 399.317627,418.987152 
	C403.976868,419.163147 408.645905,419.091156 413.311310,419.088959 
	C417.358215,419.087036 417.456085,417.299530 416.207489,413.922058 
	C415.048645,410.787354 414.720062,407.286621 414.497925,403.915955 
	C414.454895,403.263031 417.180206,401.580811 417.624542,401.877441 
	C420.994812,404.127289 424.115051,406.751678 427.727417,409.843842 
M488.258789,415.247040 
	C489.465454,416.133881 490.598663,417.149292 491.890320,417.887451 
	C503.388794,424.458984 514.734924,424.296021 525.790161,416.852356 
	C534.656006,410.882874 538.845337,400.288635 536.365173,389.195862 
	C533.703125,377.289856 525.673462,370.919891 514.015442,368.438507 
	C502.049713,365.891602 488.452301,371.666138 482.615906,382.023285 
	C476.234589,393.347412 477.990540,404.581726 488.258789,415.247040 
M257.499023,397.576843 
	C263.659821,397.568756 269.826965,397.385254 275.979401,397.608215 
	C280.876740,397.785706 281.818054,395.112457 281.710022,391.053009 
	C281.589417,386.520416 278.646149,386.117493 275.195709,386.241760 
	C269.209747,386.457397 263.225006,386.752686 257.237000,386.857178 
	C209.626526,387.688202 162.015045,388.462463 114.405365,389.334564 
	C111.435066,389.388947 108.477165,390.120361 105.513496,390.536835 
	C105.551773,391.477631 105.590057,392.418427 105.628334,393.359222 
	C155.810898,397.484436 206.171982,397.112518 257.499023,397.576843 
M785.499023,397.684418 
	C817.488892,397.116516 849.481628,396.666901 881.467041,395.911682 
	C891.614990,395.672058 901.749023,394.683807 911.876587,393.877411 
	C913.772461,393.726471 915.607483,392.811432 917.470520,392.248993 
	C917.402222,391.801666 917.333923,391.354309 917.265625,390.906982 
	C914.353149,390.427551 911.448364,389.585175 908.526917,389.522827 
	C860.045471,388.487915 811.561523,387.567810 763.079468,386.558807 
	C759.364868,386.481506 756.905090,387.229584 756.965637,391.660461 
	C757.022400,395.807953 758.726868,397.777771 763.000671,397.706451 
	C770.164917,397.586884 777.332764,397.687805 785.499023,397.684418 
M332.263885,402.474701 
	C331.906250,401.019562 331.413147,399.582886 331.212067,398.106415 
	C329.294312,384.024261 339.586395,374.406952 352.141907,379.012543 
	C355.816711,380.360535 358.676514,383.883087 361.982941,386.309387 
	C363.070648,387.107513 364.388550,387.591980 365.601166,388.219879 
	C366.279602,386.821289 367.383118,385.468933 367.541382,384.013763 
	C367.808716,381.556152 367.411591,379.033356 367.415344,376.538147 
	C367.419708,373.638763 366.307281,371.996704 363.237640,371.405151 
	C359.325012,370.651154 355.545471,369.223572 351.642700,368.397827 
	C337.486237,365.402527 322.072449,372.704224 317.155762,384.482666 
	C311.197083,398.757172 317.520538,416.754944 335.294128,421.469025 
	C345.578979,424.196838 355.093933,422.793823 363.921051,416.923065 
	C366.759613,415.035187 369.218506,407.631378 367.393005,405.897552 
	C363.640198,402.333221 361.675934,406.793274 359.084656,408.269501 
	C358.076904,408.843628 357.197235,409.640289 356.197052,410.230164 
	C346.342377,416.042145 337.827332,413.505829 332.263885,402.474701 
z"/>
<path fill="#F8F8F8" opacity="1.000000" stroke="none" 
	d="
M490.003937,143.109695 
	C451.699371,144.036255 413.891815,144.891098 376.090851,145.975845 
	C371.497101,146.107666 368.632538,144.866806 366.528473,140.662918 
	C357.286804,122.198326 347.803131,103.855026 338.462769,85.439590 
	C335.717255,80.026550 333.154358,74.520882 331.327332,68.174438 
	C332.540344,68.755882 333.850433,69.194160 334.951599,69.940613 
	C347.911682,78.725891 360.827820,87.576042 373.786133,96.363998 
	C377.191162,98.673210 379.246490,101.165169 378.242706,105.856926 
	C377.314392,110.196136 380.007324,113.517998 383.641846,115.749825 
	C395.984467,123.328957 416.193909,112.674759 417.154724,98.218811 
	C417.385132,94.752129 416.596771,92.300621 412.912079,91.484329 
	C408.994904,90.616524 407.750671,88.203156 407.812866,84.227951 
	C408.023956,70.733459 407.888031,57.233784 407.940857,43.736305 
	C407.947632,42.000828 408.285217,40.266647 408.469543,38.531868 
	C409.316376,37.917511 410.163177,37.303154 411.010010,36.688797 
	C411.613617,38.238884 411.865570,40.081585 412.874664,41.294258 
	C424.165985,54.863712 435.519684,68.382553 446.997345,81.794556 
	C449.242249,84.417770 449.175415,86.088142 446.595490,88.420441 
	C442.928192,91.735733 442.847504,96.485489 445.867920,100.516930 
	C451.533234,108.078613 464.136169,112.172371 473.927948,108.292297 
	C479.589722,106.048790 485.192413,102.351395 489.335968,97.919289 
	C494.250916,92.662079 492.212189,87.439522 485.868164,84.000809 
	C484.898132,83.474998 484.226135,80.630447 484.737366,79.413101 
	C490.088806,66.669701 495.688477,54.030094 501.264801,41.381741 
	C504.220062,34.678524 507.233124,28.000242 510.291046,21.343292 
	C511.020691,19.754951 512.033936,18.296892 513.458618,15.847040 
	C515.255005,18.814962 516.711731,20.791019 517.729919,22.971815 
	C526.044006,40.779236 534.225525,58.648701 542.573792,76.439919 
	C544.359802,80.246170 544.647766,82.691719 539.786682,84.409180 
	C535.106201,86.062820 533.475708,90.843796 535.750305,95.142792 
	C540.132874,103.425797 547.406738,107.793701 556.528564,108.921463 
	C566.295837,110.129028 574.732544,107.452263 580.650513,99.111153 
	C583.307068,95.366806 584.154846,91.615425 579.732300,88.203430 
	C576.481384,85.695381 579.067383,83.362328 580.623474,81.442574 
	C587.965942,72.384216 595.504395,63.484951 602.869751,54.444855 
	C606.550537,49.927067 609.933044,45.165825 613.624023,40.656792 
	C614.557007,39.516994 616.155823,38.922157 617.448669,38.076874 
	C617.971802,39.357746 618.940125,40.635239 618.949890,41.920021 
	C619.061462,56.581116 619.152405,71.245888 618.852539,85.901566 
	C618.819763,87.505997 616.619812,89.745567 614.900146,90.510170 
	C609.470215,92.924454 608.361267,94.654037 609.845276,100.466248 
	C613.333801,114.128929 629.963684,121.811531 642.603149,115.599632 
	C647.330627,113.276207 649.188416,108.874504 648.558167,103.618759 
	C648.312378,101.569153 649.043274,98.370872 650.502563,97.310486 
	C662.893982,88.306389 675.547974,79.662994 688.158447,70.962479 
	C688.894287,70.454781 689.935547,70.389572 692.548950,69.601524 
	C689.447876,76.295021 687.131531,81.857887 684.356262,87.181549 
	C675.351624,104.454765 665.812195,121.461258 657.269165,138.956421 
	C654.266174,145.106262 650.545410,146.176773 644.415161,146.039078 
	C593.114990,144.886810 541.807922,144.043869 490.003937,143.109695 
z"/>
<path fill="#F8F8F8" opacity="1.000000" stroke="none" 
	d="
M240.110962,280.921082 
	C244.520065,284.605347 248.646255,288.073853 253.428879,292.094116 
	C253.718582,289.959503 253.992203,288.875336 253.993973,287.790710 
	C254.020233,271.624542 253.874344,255.456680 254.073669,239.292969 
	C254.158096,232.446671 251.059967,228.306900 244.857941,226.088257 
	C244.073532,225.807648 243.059555,225.716293 242.563553,225.166138 
	C241.031723,223.467056 239.699127,221.588348 238.289139,219.779404 
	C240.164291,218.855774 242.029999,217.153839 243.916107,217.130875 
	C259.912933,216.936356 275.913544,217.037949 291.912903,217.085495 
	C293.230011,217.089401 294.822662,216.939163 295.793976,217.593185 
	C297.046722,218.436768 298.371216,219.932266 298.582153,221.312454 
	C298.736847,222.324600 297.288940,223.747253 296.289795,224.712006 
	C295.622040,225.356796 294.500671,225.553116 293.561371,225.892044 
	C286.077209,228.592621 283.682037,231.619095 283.440735,239.459595 
	C283.235687,246.120422 283.322296,252.791138 283.329529,259.457428 
	C283.356110,283.955811 283.409943,308.454193 283.438202,332.952576 
	C283.445221,339.027802 282.976807,339.480865 276.921631,339.638184 
	C253.231567,340.253784 253.321976,340.153168 235.874344,324.474213 
	C212.705597,303.654053 189.374176,283.014954 166.124115,262.285156 
	C162.925323,259.433105 159.792496,256.507019 156.132675,253.161407 
	C155.691025,254.826385 155.251999,255.708633 155.253250,256.590271 
	C155.281494,276.421509 155.537613,296.254547 155.337128,316.083069 
	C155.257019,324.006104 157.529953,329.569672 165.691147,332.062408 
	C167.625275,332.653198 168.957535,335.214447 170.566635,336.869324 
	C168.507782,337.831116 166.459396,339.600189 164.388443,339.626984 
	C147.891678,339.840454 131.390640,339.727051 114.890930,339.700104 
	C113.727081,339.698212 112.418304,339.903442 111.433502,339.452271 
	C109.934845,338.765747 108.660736,337.589111 107.291275,336.620605 
	C108.285957,335.244995 109.071892,332.911194 110.307594,332.641998 
	C122.625183,329.958649 124.041443,321.260376 123.851501,310.622620 
	C123.452858,288.297394 123.808594,265.959259 123.789856,243.626465 
	C123.779305,231.047623 122.634193,229.665222 110.967003,224.771103 
	C109.299347,224.071548 108.403168,221.532883 107.149940,219.845367 
	C108.900497,218.895218 110.639198,217.146896 112.403481,217.120682 
	C127.066689,216.902832 141.756119,217.469925 156.391434,216.796173 
	C163.025314,216.490768 167.551453,218.601608 172.333069,222.771988 
	C194.677261,242.259842 217.302979,261.424896 240.110962,280.921082 
z"/>
<path fill="#F8F8F8" opacity="1.000000" stroke="none" 
	d="
M795.760376,220.815491 
	C829.341309,209.782684 861.940735,210.304077 893.574341,226.266251 
	C910.845581,234.981171 922.816589,248.565506 926.834229,267.609863 
	C931.736694,290.848572 923.317993,309.875763 905.307556,324.716156 
	C890.187500,337.174927 872.200195,343.199097 853.082458,345.423004 
	C825.766541,348.600525 799.552429,344.818787 775.747131,330.016052 
	C752.696716,315.682648 742.217896,289.907654 749.107300,264.538269 
	C752.466248,252.169220 759.989136,242.263290 770.204163,234.999115 
	C777.993652,229.459808 786.953308,225.566040 795.760376,220.815491 
M789.101196,291.028748 
	C794.200623,312.134033 808.300964,322.942932 829.185669,325.646332 
	C857.269897,329.281738 883.680542,313.243652 885.513672,284.292236 
	C886.684998,265.792633 881.802246,249.991440 864.957275,240.444366 
	C850.774353,232.406021 835.200195,230.903290 819.515869,235.637421 
	C801.882141,240.959930 790.525085,252.390228 788.512878,271.291260 
	C787.852112,277.498535 788.786377,283.875580 789.101196,291.028748 
z"/>
<path fill="#F7F7F7" opacity="1.000000" stroke="none" 
	d="
M694.210876,333.811432 
	C681.088196,319.835510 668.339905,305.992523 655.217590,292.513672 
	C653.216980,290.458710 649.500122,290.048157 646.548523,288.953979 
	C644.175293,288.074127 639.981506,287.708008 639.693726,286.421234 
	C638.818542,282.506348 639.274963,278.238831 639.689697,274.157074 
	C639.743958,273.622192 642.562866,273.136414 644.129578,273.024658 
	C654.060547,272.316040 664.103638,272.372375 673.891846,270.810516 
	C678.810303,270.025665 684.030029,267.208313 687.777527,263.828705 
	C695.350891,256.998749 693.971130,245.541901 684.717407,241.342178 
	C677.478882,238.057083 669.250854,236.435760 661.290283,235.405670 
	C653.583557,234.408447 645.654053,235.218689 637.828308,235.012344 
	C634.706421,234.930054 633.835632,236.141205 633.843445,239.107193 
	C633.914307,265.928162 633.837280,292.749481 633.891052,319.570526 
	C633.905457,326.776581 635.547729,328.814331 642.319031,331.330750 
	C645.145996,332.381348 649.452271,332.634735 648.771179,336.823181 
	C648.053528,341.236847 643.746033,339.697845 640.851685,339.713745 
	C623.025574,339.811707 605.198547,339.736450 587.371826,339.707092 
	C585.707397,339.704346 583.934387,339.959534 582.411438,339.471680 
	C581.075867,339.043793 579.082886,337.764709 579.057739,336.817108 
	C579.018066,335.324463 580.031677,333.338348 581.246826,332.396332 
	C582.749390,331.231537 584.896057,330.865906 586.795593,330.250946 
	C592.269958,328.478516 594.937744,324.579865 594.949402,318.994629 
	C595.005615,292.004883 594.987427,265.014893 594.938538,238.025070 
	C594.929626,233.105804 592.828491,229.370178 588.105530,227.391327 
	C585.960083,226.492432 583.581360,225.889664 581.772339,224.533737 
	C580.412659,223.514618 579.093994,221.507172 579.097290,219.942505 
	C579.099365,218.956268 581.522278,217.891113 582.963867,217.038162 
	C583.457703,216.745987 584.269287,216.989395 584.935730,216.990799 
	C613.258301,217.050049 641.584167,216.876160 669.901978,217.272919 
	C683.009521,217.456558 696.256531,217.508316 708.905334,221.947754 
	C716.244568,224.523666 723.026245,228.031357 727.774658,234.453079 
	C738.002563,248.285370 734.841125,266.779236 720.100098,275.759369 
	C712.807068,280.202209 704.599670,283.144104 696.174622,287.058441 
	C699.339966,291.104523 702.670227,295.562164 706.211487,299.845398 
	C713.214905,308.316193 720.044189,316.963470 727.553528,324.967133 
	C730.453369,328.057739 735.124512,329.425171 738.753479,331.919800 
	C740.439941,333.079102 741.564819,335.055420 742.944275,336.661316 
	C741.101074,337.683380 739.282043,339.534363 737.410767,339.588776 
	C727.589844,339.874451 717.749084,339.485931 707.928711,339.779846 
	C702.374207,339.946075 697.733582,338.850616 694.210876,333.811432 
z"/>
<path fill="#F7F7F7" opacity="1.000000" stroke="none" 
	d="
M505.787323,256.000305 
	C505.818329,276.829987 506.032104,297.162048 505.781372,317.488373 
	C505.695129,324.478271 508.001434,328.883850 514.908508,330.928192 
	C517.897949,331.813019 522.415833,332.609894 521.508179,336.987518 
	C520.568237,341.520386 516.039856,339.738281 513.008057,339.758087 
	C494.512146,339.879089 476.014862,339.786804 457.518005,339.765533 
	C456.518250,339.764374 455.341583,340.099884 454.556000,339.688721 
	C452.982635,338.865356 450.545868,337.719635 450.451874,336.547668 
	C450.337982,335.127686 452.073242,332.441528 453.362701,332.200684 
	C465.586334,329.917755 467.196747,321.727325 466.956787,311.045746 
	C466.436707,287.895416 466.724396,264.723053 466.965698,241.562637 
	C467.016663,236.670715 465.811218,234.631866 460.569611,234.987900 
	C453.766205,235.450012 446.903687,235.431625 440.083557,235.173080 
	C427.377167,234.691360 417.631683,240.158478 409.576782,249.472076 
	C407.742157,251.593399 405.931030,253.902283 403.642242,255.421692 
	C400.701477,257.373932 398.129272,255.959290 398.315338,252.436508 
	C398.868011,241.973053 399.722992,231.522766 400.640533,221.083191 
	C400.900055,218.130051 402.427399,216.574829 405.957642,216.587280 
	C456.281586,216.764801 506.606140,216.744034 556.930359,216.865860 
	C568.482300,216.893814 567.895020,215.213058 568.422852,227.230576 
	C568.766418,235.050842 569.317383,242.864731 569.488464,250.687759 
	C569.526672,252.433594 568.362854,254.205719 567.752441,255.965729 
	C566.052368,255.111542 564.061768,254.575867 562.708679,253.341385 
	C559.144958,250.090134 555.978699,246.404800 552.433716,243.131088 
	C546.814331,237.941635 539.987305,235.477295 532.402527,235.288513 
	C524.908264,235.102005 517.403992,235.288132 509.912292,235.050674 
	C506.480560,234.941910 505.653625,236.362549 505.769745,239.504837 
	C505.966553,244.829651 505.801086,250.167862 505.787323,256.000305 
z"/>
<path fill="#F8F8F8" opacity="1.000000" stroke="none" 
	d="
M327.008911,329.059265 
	C331.381317,326.192841 331.742249,321.886658 331.763641,317.759003 
	C331.902618,290.935211 331.868011,264.110535 331.894257,237.286133 
	C331.899017,232.406815 329.455872,229.124329 325.167084,227.130280 
	C323.362030,226.291061 321.226532,225.998047 319.649078,224.880890 
	C318.116547,223.795502 317.106140,221.972900 315.866455,220.474030 
	C317.400238,219.314560 318.924408,217.160690 320.469330,217.145721 
	C341.626587,216.940765 362.787689,216.946548 383.944397,217.195084 
	C385.815125,217.217056 387.661713,219.297180 389.519501,220.421371 
	C388.104279,221.964722 386.980560,224.168472 385.226013,224.943024 
	C374.775391,229.556320 373.321533,231.669373 373.347870,243.069000 
	C373.403229,267.058899 373.532684,291.050323 373.312134,315.038208 
	C373.234589,323.470276 375.500732,329.608398 384.386993,332.145111 
	C386.145721,332.647186 387.327606,335.170074 388.775482,336.761047 
	C386.700165,337.760803 384.634003,339.606354 382.548035,339.628998 
	C362.390503,339.847931 342.229126,339.823486 322.070587,339.656067 
	C320.206940,339.640594 318.355438,338.158722 316.498260,337.357758 
	C317.776672,335.629547 318.776154,333.544220 320.408539,332.269196 
	C322.194916,330.873993 324.566071,330.227478 327.008911,329.059265 
z"/>
<path fill="#F3F3F3" opacity="1.000000" stroke="none" 
	d="
M589.020874,152.865540 
	C606.673035,152.887543 623.832336,152.888626 640.991272,152.965561 
	C642.960144,152.974380 645.007263,153.138168 646.878906,153.696640 
	C651.197632,154.985306 653.676453,158.339279 653.734253,162.573563 
	C653.794861,167.013885 650.250671,169.177994 646.325623,170.198044 
	C644.101196,170.776123 641.723022,170.981583 639.413879,170.982605 
	C553.783325,171.020538 468.152710,171.019012 382.522125,170.989304 
	C380.542938,170.988617 378.489990,170.868530 376.599854,170.342590 
	C372.442413,169.185745 370.249268,166.200638 370.017731,161.933151 
	C369.795197,157.831390 372.209137,155.274490 375.781555,154.119141 
	C378.421051,153.265503 381.326599,152.890869 384.114075,152.888626 
	C452.251984,152.833786 520.389954,152.857529 589.020874,152.865540 
z"/>
<path fill="#EEEEEE" opacity="1.000000" stroke="none" 
	d="
M568.905029,392.439392 
	C566.038147,386.263458 563.293823,380.462128 560.569275,374.651520 
	C559.309448,371.964691 560.338684,370.297607 563.136963,370.202393 
	C568.121460,370.032776 573.126282,370.027740 578.105469,370.285187 
	C581.445068,370.457886 583.287659,371.872162 580.760254,375.431030 
	C580.146362,376.295441 579.547241,377.661957 579.793274,378.565704 
	C581.382507,384.404510 583.207886,390.179016 585.826721,395.960358 
	C587.864258,388.470398 594.304504,382.333588 591.260132,373.682800 
	C590.969177,372.855988 592.630066,370.328583 593.479187,370.281189 
	C598.448730,370.003784 603.462891,370.038269 608.418274,370.470032 
	C609.266846,370.543976 610.866211,373.821564 610.485474,374.289062 
	C607.767944,377.625946 609.623169,380.553833 610.697144,383.651245 
	C611.917358,387.170288 612.999268,390.737274 615.170288,394.325287 
	C617.037903,388.903259 618.914734,383.484375 620.756165,378.053467 
	C620.909546,377.601013 620.910278,377.053772 620.835266,376.573456 
	C619.832520,370.153473 619.825867,370.129761 626.666809,370.080383 
	C629.491638,370.059967 632.361755,369.881927 635.129944,370.306000 
	C637.762146,370.709259 639.362854,372.015503 637.545593,375.183746 
	C634.785400,379.996033 631.972168,384.843567 629.890564,389.964355 
	C626.637878,397.965729 623.812988,406.154572 621.144958,414.373718 
	C620.002258,417.893829 617.941772,419.107605 614.519775,418.984711 
	C610.924805,418.855621 607.563110,418.806854 606.337830,414.262909 
	C604.491211,407.414215 602.284729,400.662506 600.231201,393.869568 
	C599.784729,393.813446 599.338318,393.757324 598.891846,393.701172 
	C598.291626,394.866852 597.547180,395.981720 597.115906,397.206879 
	C595.128052,402.854279 593.021362,408.472992 591.364868,414.219513 
	C590.171204,418.360535 587.332214,418.945435 583.749207,419.006897 
	C580.031311,419.070679 577.428589,418.069366 576.205505,414.077606 
	C574.014709,406.927429 571.446228,399.893005 568.905029,392.439392 
z"/>
<path fill="#EFEFEF" opacity="1.000000" stroke="none" 
	d="
M705.154541,377.289307 
	C704.392273,375.313782 703.003601,373.337463 703.507446,372.197723 
	C704.017456,371.044006 706.365540,370.240082 707.968933,370.125031 
	C711.774841,369.851868 715.628540,369.896942 719.440369,370.151031 
	C723.284790,370.407288 723.806702,372.106659 722.016541,375.405060 
	C720.742188,377.753021 719.608948,380.509033 719.531433,383.116180 
	C719.239807,392.926270 719.516052,402.752258 719.313110,412.566772 
	C719.270142,414.646667 718.237854,418.402557 717.432251,418.465759 
	C714.521545,418.694153 710.931885,418.508362 708.678467,416.933655 
	C705.356812,414.612488 703.001892,410.928375 700.161865,407.893433 
	C694.281799,401.609680 688.353333,395.371094 681.673950,389.357330 
	C682.528564,397.994690 677.792969,406.848175 683.854309,415.049255 
	C684.285767,415.633026 682.930176,418.690948 682.291504,418.729950 
	C677.160217,419.043182 671.980896,419.183472 666.859436,418.799774 
	C664.016663,418.586792 663.685181,416.721985 665.135803,414.093567 
	C666.422363,411.762299 667.519165,409.017120 667.634949,406.407440 
	C667.966431,398.933167 667.767395,391.434906 667.755920,383.946136 
	C667.750854,380.670654 668.122986,377.530243 664.843811,374.985413 
	C662.648132,373.281525 663.682068,370.585602 666.473694,370.356049 
	C671.593689,369.935028 676.781738,369.987305 681.913452,370.300995 
	C683.278687,370.384430 684.710938,371.974670 685.823914,373.146973 
	C691.546814,379.175079 697.165466,385.301971 702.849976,391.366791 
	C703.580688,392.146484 704.482849,392.765503 706.643494,393.093597 
	C706.215088,387.947571 705.786682,382.801544 705.154541,377.289307 
z"/>
<path fill="#EDEDED" opacity="1.000000" stroke="none" 
	d="
M427.520325,409.551575 
	C424.115051,406.751678 420.994812,404.127289 417.624542,401.877441 
	C417.180206,401.580811 414.454895,403.263031 414.497925,403.915955 
	C414.720062,407.286621 415.048645,410.787354 416.207489,413.922058 
	C417.456085,417.299530 417.358215,419.087036 413.311310,419.088959 
	C408.645905,419.091156 403.976868,419.163147 399.317627,418.987152 
	C398.147675,418.942932 396.430298,418.342072 396.025055,417.491669 
	C395.647766,416.699921 396.650635,415.222443 397.104034,414.069733 
	C397.740204,412.452545 398.961182,410.872192 399.009277,409.248718 
	C399.285675,399.923737 399.430634,390.588226 399.266388,381.262482 
	C399.233582,379.399872 397.674652,377.560883 396.805634,375.717499 
	C396.224823,374.485474 395.105804,373.217682 395.212616,372.056519 
	C395.279724,371.326813 397.172729,370.207397 398.241211,370.213440 
	C409.387695,370.276459 420.552399,370.206970 431.670807,370.867981 
	C437.470673,371.212769 442.853516,373.615204 444.914490,379.861023 
	C447.107086,386.505798 445.521576,392.442535 440.268555,397.075958 
	C437.869110,399.192413 438.152191,401.115051 439.935211,403.032745 
	C443.316071,406.668976 446.955078,410.064331 450.364838,413.674988 
	C451.272430,414.636108 451.737030,416.015564 452.405029,417.202942 
	C451.143127,417.835388 449.913239,418.921021 448.613159,419.012756 
	C445.132874,419.258362 441.617157,419.197327 438.125366,419.039825 
	C432.250031,418.774841 430.818726,413.339996 427.520325,409.551575 
M418.457336,394.934387 
	C423.335785,394.695282 427.906555,393.475403 429.763062,388.453186 
	C431.978882,382.458832 427.924561,378.388885 419.702820,378.097717 
	C417.442657,378.017700 414.577667,377.029419 414.050629,380.991608 
	C412.987305,388.985565 414.147095,393.977081 418.457336,394.934387 
z"/>
<path fill="#EEEEEE" opacity="1.000000" stroke="none" 
	d="
M487.996307,415.007172 
	C477.990540,404.581726 476.234589,393.347412 482.615906,382.023285 
	C488.452301,371.666138 502.049713,365.891602 514.015442,368.438507 
	C525.673462,370.919891 533.703125,377.289856 536.365173,389.195862 
	C538.845337,400.288635 534.656006,410.882874 525.790161,416.852356 
	C514.734924,424.296021 503.388794,424.458984 491.890320,417.887451 
	C490.598663,417.149292 489.465454,416.133881 487.996307,415.007172 
M517.434509,408.919678 
	C523.048401,400.220428 523.371765,390.578674 518.296936,383.204285 
	C513.199097,375.796417 504.579590,375.239441 499.016296,382.172058 
	C493.297363,389.298676 493.383331,397.311371 496.927948,405.184326 
	C500.904388,414.016571 509.296814,415.620514 517.434509,408.919678 
z"/>
<path fill="#E6E6E6" opacity="1.000000" stroke="none" 
	d="
M256.999084,397.586365 
	C206.171982,397.112518 155.810898,397.484436 105.628334,393.359222 
	C105.590057,392.418427 105.551773,391.477631 105.513496,390.536835 
	C108.477165,390.120361 111.435066,389.388947 114.405365,389.334564 
	C162.015045,388.462463 209.626526,387.688202 257.237000,386.857178 
	C263.225006,386.752686 269.209747,386.457397 275.195709,386.241760 
	C278.646149,386.117493 281.589417,386.520416 281.710022,391.053009 
	C281.818054,395.112457 280.876740,397.785706 275.979401,397.608215 
	C269.826965,397.385254 263.659821,397.568756 256.999084,397.586365 
z"/>
<path fill="#E3E3E3" opacity="1.000000" stroke="none" 
	d="
M784.999084,397.690186 
	C777.332764,397.687805 770.164917,397.586884 763.000671,397.706451 
	C758.726868,397.777771 757.022400,395.807953 756.965637,391.660461 
	C756.905090,387.229584 759.364868,386.481506 763.079468,386.558807 
	C811.561523,387.567810 860.045471,388.487915 908.526917,389.522827 
	C911.448364,389.585175 914.353149,390.427551 917.265625,390.906982 
	C917.333923,391.354309 917.402222,391.801666 917.470520,392.248993 
	C915.607483,392.811432 913.772461,393.726471 911.876587,393.877411 
	C901.749023,394.683807 891.614990,395.672058 881.467041,395.911682 
	C849.481628,396.666901 817.488892,397.116516 784.999084,397.690186 
z"/>
<path fill="#ECECEC" opacity="1.000000" stroke="none" 
	d="
M332.435760,402.850403 
	C337.827332,413.505829 346.342377,416.042145 356.197052,410.230164 
	C357.197235,409.640289 358.076904,408.843628 359.084656,408.269501 
	C361.675934,406.793274 363.640198,402.333221 367.393005,405.897552 
	C369.218506,407.631378 366.759613,415.035187 363.921051,416.923065 
	C355.093933,422.793823 345.578979,424.196838 335.294128,421.469025 
	C317.520538,416.754944 311.197083,398.757172 317.155762,384.482666 
	C322.072449,372.704224 337.486237,365.402527 351.642700,368.397827 
	C355.545471,369.223572 359.325012,370.651154 363.237640,371.405151 
	C366.307281,371.996704 367.419708,373.638763 367.415344,376.538147 
	C367.411591,379.033356 367.808716,381.556152 367.541382,384.013763 
	C367.383118,385.468933 366.279602,386.821289 365.601166,388.219879 
	C364.388550,387.591980 363.070648,387.107513 361.982941,386.309387 
	C358.676514,383.883087 355.816711,380.360535 352.141907,379.012543 
	C339.586395,374.406952 329.294312,384.024261 331.212067,398.106415 
	C331.413147,399.582886 331.906250,401.019562 332.435760,402.850403 
z"/>
<path fill="#040404" opacity="1.000000" stroke="none" 
	d="
M789.046265,290.601868 
	C788.786377,283.875580 787.852112,277.498535 788.512878,271.291260 
	C790.525085,252.390228 801.882141,240.959930 819.515869,235.637421 
	C835.200195,230.903290 850.774353,232.406021 864.957275,240.444366 
	C881.802246,249.991440 886.684998,265.792633 885.513672,284.292236 
	C883.680542,313.243652 857.269897,329.281738 829.185669,325.646332 
	C808.300964,322.942932 794.200623,312.134033 789.046265,290.601868 
z"/>
<path fill="#191919" opacity="1.000000" stroke="none" 
	d="
M418.025116,394.937225 
	C414.147095,393.977081 412.987305,388.985565 414.050629,380.991608 
	C414.577667,377.029419 417.442657,378.017700 419.702820,378.097717 
	C427.924561,378.388885 431.978882,382.458832 429.763062,388.453186 
	C427.906555,393.475403 423.335785,394.695282 418.025116,394.937225 
z"/>
<path fill="#0B0B0B" opacity="1.000000" stroke="none" 
	d="
M517.195312,409.212250 
	C509.296814,415.620514 500.904388,414.016571 496.927948,405.184326 
	C493.383331,397.311371 493.297363,389.298676 499.016296,382.172058 
	C504.579590,375.239441 513.199097,375.796417 518.296936,383.204285 
	C523.371765,390.578674 523.048401,400.220428 517.195312,409.212250 
z"/>
</svg>